<svg id="Calque_1" data-name="Calque 1" xmlns="http://www.w3.org/2000/svg" viewBox="0 0 163.31 46"><title>Logo</title><polygon points="25.56 17.95 25.54 17.95 22.99 18.47 21.42 18.79 21 18.72 16.51 17.87 16.49 17.84 16.49 17.88 15.97 20.25 15.97 20.3 15.99 20.3 20.95 21.41 21 21.41 22.99 20.93 25.99 20.19 26.03 20.16 26.03 20.15 25.57 18 25.56 17.95" style="fill:#793b8c"/><path d="M31,16.49v-.31h0l-4.91-.82L23,14.85l-2-.34-.27,0-9.52,1.9h0l0,.19v.05h0l1.55.26L12,23l-.45,2.8.06,0L12.27,24l.15,1.12c0,.06,0,.09.06.09a6.44,6.44,0,0,0,.09-1.06v-.59c.08.27.32.9.47,1.3l.1.22c.06.13.09.14.12,0a.22.22,0,0,0,0-.1l-.37-1.62.41.57h.06v-1.5L13.58,17,21,18.3l.56.1L23,18.11l3.11-.64,4.91-1Z" style="fill:#793b8c"/><path d="M30.94,27.59l-.09-.06,0,0v.05a2.33,2.33,0,0,1-.15.38,1.34,1.34,0,0,1-.17.33l0,0h0a.47.47,0,0,0,.22.13s0,0,0,0a.79.79,0,0,0,.31.06h0a.66.66,0,0,0,.47-.24,1.15,1.15,0,0,0,.15-.69v-.06l0,.05a.56.56,0,0,1-.15.08s0,0-.05,0a.32.32,0,0,1-.17,0,.52.52,0,0,1-.22-.05l-.09,0S31,27.59,30.94,27.59Z" style="fill:#793b8c"/><path d="M29.13,30.09a.22.22,0,0,0-.06-.09l-.15-.26v0a.58.58,0,0,1-.06-.22.35.35,0,0,1,0-.15.87.87,0,0,1,0-.15s0,0,0,0v-.09s0,0,0,0,0,0,0,0l-.12,0h-.2a.68.68,0,0,1-.24.05l-.26.06h0v0a4,4,0,0,1-.43.83,7.77,7.77,0,0,1-.69.89l-.36.36a2.49,2.49,0,0,1-.24.2l-.13.1c-.05,0-.06,0-.09,0h0a.09.09,0,0,1-.08-.05s0-.06,0-.13a1,1,0,0,1,0-.29l.09-.27a1,1,0,0,1,.09-.23c.06-.22.1-.41.15-.56a2.28,2.28,0,0,0,.06-.46.67.67,0,0,0-.05-.23.34.34,0,0,0-.1-.19c0-.08-.06-.09-.13-.14h0a.49.49,0,0,0-.19,0,.83.83,0,0,0-.37.09l-.06,0-.09.06a3.2,3.2,0,0,0-.36.28c-.14.13-.28.28-.46.46a.41.41,0,0,1,0-.18v-.17a.81.81,0,0,0-.06-.33s0,0,0,0a.18.18,0,0,1,0-.06.25.25,0,0,0-.12-.12h0a.29.29,0,0,0-.18,0,1.69,1.69,0,0,0-1,.59l-.14.14-.11.11a1,1,0,0,0-.18.22c.05-.24.13-.47.19-.69a1,1,0,0,0,.06-.18l0-.08A.32.32,0,0,0,23,29L23,29H23l-.87.17h0l0,0a8,8,0,0,0-.34.85,1,1,0,0,1-.06.15,1,1,0,0,1,0,.15,2.08,2.08,0,0,0-.09.45.12.12,0,0,1,0,.09c0,.19,0,.41,0,.62v.75l.05,0,.81-.19h0v-.56a1.52,1.52,0,0,1,.05-.27,1.33,1.33,0,0,1,0-.29,1.19,1.19,0,0,1,.13-.33s0,0,0-.06,0,0,.05,0a.77.77,0,0,1,.13-.15l.1-.13,0,0a.18.18,0,0,0,.08-.09s.06-.06.1-.08l.09-.06.09-.06.09-.06h0v0h.05v0h0s0,0,.05,0,0,0,0,.06v0a.37.37,0,0,0,0,.1,2.59,2.59,0,0,0-.05.25,2,2,0,0,1-.06.37v.1l-.37,1.52v0h0l.93-.17h0v0l.2-.87.14-.51a.14.14,0,0,1,.06-.13.51.51,0,0,1,.1-.18s.06-.09.12-.1.06-.09.08-.11.06-.06.09-.09l.09-.08s0-.05.09-.06a.09.09,0,0,1,.06-.05.1.1,0,0,1,.06,0l0,0h0s0,0,.05,0,0,0,.06,0,0,0,0,.06a1.64,1.64,0,0,1,0,.23c0,.13-.09.31-.15.5a2.86,2.86,0,0,0-.14.56,1.52,1.52,0,0,0-.06.45.75.75,0,0,0,0,.27,1,1,0,0,0,.1.22.77.77,0,0,0,.2.13,1,1,0,0,0,.2,0,1,1,0,0,0,.33-.06l.26-.1s0-.05.06-.06a1.8,1.8,0,0,0,.37-.28l.43-.37v0c.2-.23.41-.47.6-.71s.31-.42.45-.62a1.09,1.09,0,0,0,.18.37l.06.11s0,.06.06.1a1.12,1.12,0,0,1,.18.34.69.69,0,0,1,.06.24.61.61,0,0,1-.09.32s0,0-.05,0,0,.05,0,.06a1,1,0,0,1-.19.15.66.66,0,0,1-.22.05.38.38,0,0,1-.18-.06.58.58,0,0,1-.1-.22,1.26,1.26,0,0,0-.13-.27h0a.13.13,0,0,0-.09-.05.36.36,0,0,0-.2.15l-.05.05-.06.06-.15.2s0,0,0,0a.29.29,0,0,0,0,.13A.22.22,0,0,0,27,32a.43.43,0,0,0,.18.15l.17.09h0a.82.82,0,0,0,.25,0,1.25,1.25,0,0,0,.56-.13,2.2,2.2,0,0,0,.56-.38,1.93,1.93,0,0,0,.41-.55,1.25,1.25,0,0,0,.13-.56,1,1,0,0,0-.1-.45S29.15,30.12,29.13,30.09Z" style="fill:#793b8c"/><path d="M35.33,30.9a4.55,4.55,0,0,1-.52.5,1.93,1.93,0,0,1-.43.26l.33-1.77c0-.19.08-.38.14-.6,0,0,0-.06.05-.1s0-.09,0-.14h0v0h-.13l-.25.13a1.1,1.1,0,0,0-.24.11.5.5,0,0,0-.16.06,1.13,1.13,0,0,0-.24-.2h-.06A.63.63,0,0,0,33.5,29a.78.78,0,0,0-.24,0h0a1.54,1.54,0,0,0-.65.32,1.7,1.7,0,0,0-.15.15.51.51,0,0,0-.17.17,2.69,2.69,0,0,0-.52.89.52.52,0,0,1,0,.19.49.49,0,0,1,0,.19l-.23.24a.47.47,0,0,1-.18.14.12.12,0,0,1-.1.08h0l-.06,0H31s-.05,0-.06,0,0,0-.05,0a.14.14,0,0,1,0-.06h0v-.11a3.26,3.26,0,0,1,.1-.64.4.4,0,0,0,.05-.18c0-.06,0-.13.06-.19L31.46,29v0h-.1l-.28.06-.65.13v0a12,12,0,0,0-.4,1.22,4.13,4.13,0,0,0-.13,1,1,1,0,0,0,0,.34,1.66,1.66,0,0,0,.11.28,1.19,1.19,0,0,0,.19.17.49.49,0,0,0,.24.06A1,1,0,0,0,31,32l.06,0,.28-.23.37-.34a1.07,1.07,0,0,0,.08.31l.05.06s0,0,0,.06a.69.69,0,0,0,.2.19l0,0a.5.5,0,0,0,.31.09,1,1,0,0,0,.25-.05,1.56,1.56,0,0,0,.28-.15l.28-.23v0h0c.08-.06.14-.15.22-.23l-.13.57s-.05,0-.09,0h0a5,5,0,0,0-.59.26,2,2,0,0,0-.5.29,1.4,1.4,0,0,0-.25.36.71.71,0,0,0-.09.38.76.76,0,0,0,.09.37s0,0,0,.06,0,0,.05,0v0a.78.78,0,0,0,.5.16,1.15,1.15,0,0,0,.73-.25l0,0h0l.12-.09.13-.13a3.64,3.64,0,0,0,.59-1l.1-.24a1,1,0,0,1,.09-.23,3.41,3.41,0,0,0,.82-.48,1.49,1.49,0,0,0,.15-.13l.13-.13v-.43Zm-2.08,1.56h0a3.66,3.66,0,0,1-.24.71.17.17,0,0,1,0,.1c0,.05-.05.06-.06.12s-.11.14-.15.2,0,0,0,0a.36.36,0,0,1-.22.06h0a.32.32,0,0,1-.18,0v0a0,0,0,0,1,0,0,.11.11,0,0,1-.06-.1.23.23,0,0,1,0-.13.7.7,0,0,1,.28-.52,3.09,3.09,0,0,1,.8-.41h0Zm.55-2.33a.13.13,0,0,0,0,.1.67.67,0,0,0,0,.13,2.37,2.37,0,0,1-.2.59.22.22,0,0,1-.06.09.17.17,0,0,1,0,.1.85.85,0,0,1-.18.19h0s0,0,0,0a.36.36,0,0,1-.22.06.22.22,0,0,1-.19-.06s0,0,0,0,0,0,0,0a.32.32,0,0,1-.06-.17.64.64,0,0,1,0-.22,2.39,2.39,0,0,1,.06-.52,2.21,2.21,0,0,1,.22-.51,1.13,1.13,0,0,1,.31-.39v0h0a.6.6,0,0,1,.33-.1.15.15,0,0,1,.1,0l.09.08s0,.05,0,.09v0a.28.28,0,0,1,0,.15C33.84,29.8,33.82,29.93,33.8,30.12Z" style="fill:#793b8c"/><path d="M33.26,2.41c-.7-.34-1.43-.66-2.16-.94a23,23,0,1,0,0,43.05,21.66,21.66,0,0,0,2.16-1,23,23,0,0,0,0-41.15Zm0,33.84a17.18,17.18,0,0,1-2.16,1.43A16.74,16.74,0,0,1,23,39.77a15.78,15.78,0,0,1-2.47-.19l.48-.09a6.37,6.37,0,0,0,.78-.2,3.81,3.81,0,0,0,.7-.26c.17-.06.34-.13.51-.2a1.37,1.37,0,0,1,.2-.09,20.53,20.53,0,0,0,2.6-1.62l.31-.19c.84-.62,1.72-1.34,2.65-2.18v0l0-2.79v-.06l-.06,0c-1,.93-1.9,1.68-2.62,2.26-.31.22-.56.43-.82.61s-.34.22-.5.29a2.48,2.48,0,0,1-.43.24,6.28,6.28,0,0,1-1.36.5,5.11,5.11,0,0,1-.76.1h-.88c-.11,0-.24,0-.34-.05A4.86,4.86,0,0,1,17.18,33c-.15-.34-.31-.71-.43-1.1a9.27,9.27,0,0,1-.29-1.25A37.68,37.68,0,0,0,21,29.44a16,16,0,0,0,2-.84,11,11,0,0,0,1.39-.79,7.16,7.16,0,0,0,1.72-1.57,4.63,4.63,0,0,0,1-2.78,4.77,4.77,0,0,0-.43-2,2,2,0,0,0-.22-.34,1.91,1.91,0,0,0-.22-.34l0,0h-.1L23,21.41l-.8.18h-.05l0,0a1.81,1.81,0,0,1,.17.65,4.11,4.11,0,0,1,.08.82A5.2,5.2,0,0,1,21,26.74,6.23,6.23,0,0,1,19.21,28a8.71,8.71,0,0,1-1.35.55,15.56,15.56,0,0,1-1.59.38,15.43,15.43,0,0,1,.41-3.44,9.31,9.31,0,0,1,1.1-2.71c.2-.28.37-.54.56-.75a4.44,4.44,0,0,1,.56-.61l.05,0-.08,0-3-.63h-.06c-.25.21-.53.43-.79.68a7.23,7.23,0,0,0-.75.78,3.14,3.14,0,0,0-.43.47c-.15.15-.28.32-.41.47V24h0a.13.13,0,0,1-.05.09.13.13,0,0,1-.1.05.16.16,0,0,1-.09-.05h-.09l.22.93s0,.06,0,.09h0v0c0,.15,0,.24-.06.28s0,0,0,0a0,0,0,0,1,0,0s-.06-.05-.12-.11h0s0,0-.06-.05v0h0v0l0,0c0-.05,0-.06-.05-.11a.43.43,0,0,0,0-.15c0-.1-.1-.23-.15-.38l0-.06,0-.09h-.06c0,.24,0,.5-.06.68s-.06.29-.13.29-.11,0-.13-.09,0,0,0,0,0,0,0-.06V25l-.06,0a12.12,12.12,0,0,0-1.18,3,13.62,13.62,0,0,0-.43,3.28A9.27,9.27,0,0,0,11.3,35,16.77,16.77,0,0,1,30.12,7.81l-4,0h-1a17.07,17.07,0,0,1-1.39,3c-.23.37-.46.71-.73,1.08-.43.61-.94,1.25-1.54,1.95l0,0h.05l1.52.34,1.48.32h0c.65-.34,1.17-.62,1.62-.9.13-.08.28-.17.41-.25A12.4,12.4,0,0,0,28,12.27a9.46,9.46,0,0,0,1.72-2,9,9,0,0,0,1-2.18l.42.23a17,17,0,0,1,2.16,1.43,16.77,16.77,0,0,1,0,26.51Z" style="fill:#793b8c"/><path d="M43.51,29.57v-.34a.62.62,0,0,1,0,.15,1.1,1.1,0,0,1,0,.19Zm0-1.44v-.25l.43.11-.05.23-.38-.09Zm0-1.77v-.23a.88.88,0,0,0,.31-.06.79.79,0,0,0,.29-.24.7.7,0,0,0,.14-.34.81.81,0,0,0-.06-.38.65.65,0,0,0-.24-.28.67.67,0,0,0-.36-.13h-.08v-.22l1,.1,0,.23-.32,0a1,1,0,0,1,.24.36.88.88,0,0,1,.05.41.91.91,0,0,1-.34.64.92.92,0,0,1-.6.2Zm0-2.24v-.24h0V22.28l.19,0,0,1.64a.77.77,0,0,0,.51-.2.71.71,0,0,0,.15-.76.89.89,0,0,0-.13-.22,1.28,1.28,0,0,0-.27-.2l.1-.19a1.58,1.58,0,0,1,.32.22,1.14,1.14,0,0,1,.18.29,1,1,0,0,1,.06.36.87.87,0,0,1-.29.7,1,1,0,0,1-.65.25l-.2,0Zm0-3v-.28a.92.92,0,0,0,.28-.17,1.06,1.06,0,0,0,.33-.46,1.2,1.2,0,0,0,.05-.6,1,1,0,0,0-.31-.6.83.83,0,0,0-.36-.2v-.25a1.22,1.22,0,0,1,.43.19,1.27,1.27,0,0,1,.47.84,1.36,1.36,0,0,1-.31,1.14,1.24,1.24,0,0,1-.6.39Zm0-3v-.29a.77.77,0,0,0,.13-.15.63.63,0,0,0,.08-.52.94.94,0,0,0-.2-.36v-.29h0a.85.85,0,0,1,.24.23,1.36,1.36,0,0,1,.15.33.86.86,0,0,1-.11.75A.93.93,0,0,1,43.51,18.1Zm0-1.62v.29l-.09-.08a1.25,1.25,0,0,0-.31-.13l.05-.22a1.08,1.08,0,0,1,.34.13Zm0,1.33a.83.83,0,0,1-.33.18l-.41-1.59-.15.05v.27h0L43,18a1.3,1.3,0,0,1-.37-.08v.24a1,1,0,0,0,.61,0,1.08,1.08,0,0,0,.28-.11v-.29Zm0,.7v.25l-.23,0,.12.78-.24,0-.15-1a1.7,1.7,0,0,1,.51,0Zm0,2.28v.28l-.17,0a1.51,1.51,0,0,1-.67-.08l-.05,0v-.29l.15.08a1,1,0,0,0,.52.06l.22-.06Zm0,1.49v.24a.68.68,0,0,0-.31.14,1.07,1.07,0,0,0-.18.23.89.89,0,0,0-.06.32.67.67,0,0,0,.18.46.84.84,0,0,0,.37.2v.24a1,1,0,0,1-.42-.18.87.87,0,0,1-.34-.73.83.83,0,0,1,.34-.74.81.81,0,0,1,.42-.19Zm0,2.18v.22a.71.71,0,0,0-.47.17.74.74,0,0,0-.27.5,1,1,0,0,0,.06.37.73.73,0,0,0,.24.28.78.78,0,0,0,.36.14h.08v.23h-.1a.91.91,0,0,1-.64-.34.71.71,0,0,1-.15-.23V25l.06-.12a.85.85,0,0,1,.32-.28l-.38,0v-.23l.89.08Zm0,3.41v.25l-.89-.22v-.24l.89.2Zm0,1.35v.34a1.3,1.3,0,0,1-.05.17.88.88,0,0,1-.5.56,1.1,1.1,0,0,1-.34.06v-.23a.7.7,0,0,0,.28-.06.63.63,0,0,0,.36-.38,1,1,0,0,0,.05-.28,1.19,1.19,0,0,0-.05-.24,1.26,1.26,0,0,0-.18-.28l.17-.15a1.31,1.31,0,0,1,.22.32.75.75,0,0,1,.05.18Zm-.89.08.27-.76a1,1,0,0,0-.27-.05v.82Zm0-13.88v-.31l.06,0a.5.5,0,0,1,.41,0,.53.53,0,0,1,.29.31.64.64,0,0,1,0,.31.78.78,0,0,1-.09.29l-.22-.08a.56.56,0,0,0,.06-.43.33.33,0,0,0-.18-.19.24.24,0,0,0-.23,0,.21.21,0,0,0-.14.11Zm0-1v-.25l.2-.09.09.22Zm0-.25v.25l-.39.18v-.26l.39-.18Zm0,.9v.31a1.29,1.29,0,0,0-.06.33.91.91,0,0,1-.13.41.44.44,0,0,1-.2.17v-.25s0,0,0-.05a.72.72,0,0,0,.08-.33,1,1,0,0,1,.13-.42.47.47,0,0,1,.17-.15Zm0,1.33v.27a.58.58,0,0,0-.23.19.51.51,0,0,0-.11.28.68.68,0,0,0,0,.32.63.63,0,0,0,.28.4l.05,0v.24h0a.79.79,0,0,1-.36-.28V16.75h0a.94.94,0,0,1,.39-.31Zm0,4.27V21a1.24,1.24,0,0,1-.39-.28v-.45l.1.17a1,1,0,0,0,.29.27Zm0,3.67v.23l-.39,0v-.23l.39,0Zm0,.66v.74a.8.8,0,0,1-.06-.46.68.68,0,0,1,.06-.28Zm0,2.62v.24l-.29-.08-.08.32h0v-.75l0-.19.2.05-.09.36.24.06Zm0,.82v.82l-.27.78a.67.67,0,0,0,.27.05v.23a1,1,0,0,1-.37-.05h0v-.46l.39-1.12a.9.9,0,0,0-.33,0l-.06,0v-.26h0a1,1,0,0,1,.38,0Zm-.39,4.18v-.94a1.26,1.26,0,0,1,.1.24.79.79,0,0,1,0,.34.94.94,0,0,1-.11.34Zm0-13.47v-.37l.14.11a1.64,1.64,0,0,0-.14.25Zm0-5.54V13.4l.22-.11.1.22Zm0-.26v.26l-1.12.56V14l1.12-.56Zm0,1v.26l-.79.34.13.29-.19.08-.13-.29-.14.08v-.27l.05,0-.05-.13v-.24l.09-.05.14.34.89-.38Zm0,1.68v.25h0a.42.42,0,0,1-.37,0,.5.5,0,0,1-.25-.28.74.74,0,0,1,.05-.56l.2.09a.53.53,0,0,0-.05.41.32.32,0,0,0,.14.15.24.24,0,0,0,.19,0,.24.24,0,0,0,.12-.08Zm0,.68v1.13a.72.72,0,0,1-.15-.33.9.9,0,0,1,.15-.8Zm0,2.08v.37a1.61,1.61,0,0,0-.09.23,1.33,1.33,0,0,0,0,.5,1.15,1.15,0,0,0,.13.36v.45a.56.56,0,0,1-.09-.1,1.46,1.46,0,0,1-.27-.66,1.58,1.58,0,0,1,0-.6,1.89,1.89,0,0,1,.28-.59l.06.05Zm0,5.52v.23l-.26,0,0-.23.23,0Zm0,3v.75l-.18,0,.08-.31-.65-.17.05-.23.65.15.05-.17Zm0,1.13v.26a.81.81,0,0,0-.19.13.73.73,0,0,0-.17.27.74.74,0,0,0,0,.5.73.73,0,0,0,.28.32l.06-.15v.46a.92.92,0,0,1-.49-.39.94.94,0,0,1,.49-1.38Zm0,3.2v.94a.87.87,0,0,1-.59.46,1,1,0,0,1-.54,0v-.25a.75.75,0,0,0,.52.05.65.65,0,0,0,.41-.33.81.81,0,0,0,.08-.25.83.83,0,0,0,0-.26,1.22,1.22,0,0,0-.14-.31l.19-.11s0,.06.06.09Zm-1.12,2.85v-1l.08.1a.79.79,0,0,1,.1.38,1.06,1.06,0,0,1-.15.43s0,0,0,0Zm0-1.81.74-1.38a1,1,0,0,0-.64-.13l-.1,0v.24l.11,0a.79.79,0,0,1,.33,0l-.45.83v.42Zm0-19.3a1,1,0,0,0,.37-.12.91.91,0,0,0,.46-.56.85.85,0,0,0-.08-.74.87.87,0,0,0-.57-.46l-.18,0v.23a.63.63,0,0,1,.31.1.65.65,0,0,1,.26.27.71.71,0,0,1,.09.36.63.63,0,0,1-.11.36.73.73,0,0,1-.27.25.75.75,0,0,1-.27.09v.24Zm0-2.55h0Zm0,0h0l-.56.38V11l.43-.29.13.18Zm0,.66v.23h-.05a.76.76,0,0,0-.37.09,1.16,1.16,0,0,0-.14.1V11.7h0a1,1,0,0,1,.54-.11Zm0,1.66v.24a.88.88,0,0,1-.32,0l-.24-.09v-.28a.91.91,0,0,0,.27.13.77.77,0,0,0,.29,0Zm0,.73v.26l-.19.1-.1-.22.29-.14Zm0,.52v.24l-.1-.2.1,0Zm0,.39v.27l-.47.2-.09-.19v0l.56-.24Zm0,16.42v.24a.45.45,0,0,0-.15.09.66.66,0,0,0-.22.24.66.66,0,0,0,.17.84l.2-.36v.42l0,.06h0v.25a.64.64,0,0,1-.17-.06,1,1,0,0,1-.4-.38v-.92a.92.92,0,0,1,.56-.45Zm0,2.33v1a.88.88,0,0,1-.32.27.53.53,0,0,1-.24.06v-.24a.36.36,0,0,0,.13,0,.64.64,0,0,0,.27-.23.67.67,0,0,0,.1-.33.48.48,0,0,0-.1-.29,1.75,1.75,0,0,0-.36-.28h0V33.2l.2.14a2.21,2.21,0,0,1,.36.28ZM40.54,36v-.29l.34.28-.14.18-.2-.17Zm0-21.5v-.14a.19.19,0,0,1,0,.14Zm0-3.49v.28l-.53.36v-.31a2.93,2.93,0,0,0,.42-.24l.11-.09Zm0,.68V12a.76.76,0,0,0-.22.33.74.74,0,0,0,.05.55,1.32,1.32,0,0,0,.16.2v.28a1,1,0,0,1-.37-.38.92.92,0,0,1-.06-.75,1,1,0,0,1,.43-.52Zm0,2.68v.14a.12.12,0,0,1-.09.1.21.21,0,0,1-.15,0,.17.17,0,0,1-.1-.09.21.21,0,0,1,0-.15.19.19,0,0,1,.1-.11.17.17,0,0,1,.14,0,.22.22,0,0,1,.11.1Zm0,.74v0Zm0,16.62v.92a.35.35,0,0,0,0-.1.86.86,0,0,1,0-.8Zm0,1.47v.29L40,33.14v-.29l.53.36Zm0,1.47v.24h-.15a2.05,2.05,0,0,1-.38-.15v-.28l.33.18a.38.38,0,0,0,.2,0Zm0,1.06V36L40,35.59v-.31l.53.45Zm-.53.1v0ZM40,10V9.75l.2-.14.13.19Zm0-.28V10l-.38.27a2.1,2.1,0,0,0-.33.25.53.53,0,0,0-.14.29.48.48,0,0,0,.1.29.58.58,0,0,0,.33.24.64.64,0,0,0,.41,0h0v.31l-.4.28-.14-.19.27-.19a1,1,0,0,1-.41-.08.91.91,0,0,1-.24-.2v-.84a2.31,2.31,0,0,1,.34-.29l.57-.4Zm0,23.1v.29L39.87,33l.14-.2Zm0,1.63v.28l-.15-.1-.73-.48.13-.19.71.47,0,0Zm0,.8-.92-.76V35a.71.71,0,0,1,.46.18.88.88,0,0,1,.23.31.75.75,0,0,1,0,.37.61.61,0,0,1-.15.34.59.59,0,0,1-.31.22.44.44,0,0,1-.25,0v.24h.08a.85.85,0,0,0,.64-.33A.79.79,0,0,0,40,36a.62.62,0,0,0,0-.17v-.1c0-.05,0-.1,0-.17v-.28Zm-.92-24.84v.84l0-.05a.75.75,0,0,1-.13-.36.73.73,0,0,1,.1-.36l.06-.08Zm0,24.08V35H39a.73.73,0,0,0-.4.17v-.25l.05,0a.92.92,0,0,1,.42-.06l-.25-.22.15-.18.11.09Zm0,1.94v.24a.93.93,0,0,1-.48-.13v-.29h0a.72.72,0,0,0,.36.17Zm-.48,1V37.1l.27.24-.15.16Zm0-2.51v.25l-.09.1a.6.6,0,0,0-.15.33.64.64,0,0,0,0,.38.8.8,0,0,0,.2.29v.29l-.14-.1a.83.83,0,0,1-.28-.38v-.71a.8.8,0,0,1,.14-.23.91.91,0,0,1,.28-.23Zm0,2.19v.32l-.42-.37v-.32l.42.37Zm-.42,1V38l.06.06Zm0-2.73v.71a.79.79,0,0,1-.06-.25.9.9,0,0,1,.06-.46Zm0,1.36v.32l-.74-.66v-.18l.06-.08.68.6Zm0,1.22v.14l-.1.09-.64-.62v-.33l.74.73Zm-.74.79v-.19l.09.11Zm0-2.54v.18l-.09-.08.09-.1Zm0,1v.33l-.51-.51-.23.23-.06-.06v-.15l.14-.15-.14-.14v-.33l.31.31.27-.27.14.14-.26.27.34.34Zm0,1.33v.19l-.08.08-.2-.24a1.13,1.13,0,0,1-.08.42,1,1,0,0,1-.24.33.89.89,0,0,1-.2.13v-.25l.08-.05a.84.84,0,0,0,.22-.31.78.78,0,0,0,0-.38.84.84,0,0,0-.17-.34L36.65,38v-.37l.8.94Zm-.57-2.83a.16.16,0,0,1,.13-.06.19.19,0,0,1,.14.05.17.17,0,0,1,.06.13.19.19,0,0,1-.05.14A.16.16,0,0,1,37,36a.27.27,0,0,1-.14,0,.2.2,0,0,1-.06-.14A.2.2,0,0,1,36.87,35.73Zm-.23.71v.33l-.33-.33.17-.17.17.17Zm0,.62v.15l-.08-.08.08-.08Zm0,.55V38a.82.82,0,0,0-.36-.13.73.73,0,0,0-.52.18l-.14.15v-.33a1.11,1.11,0,0,1,.34-.18,1,1,0,0,1,.43,0l-.22-.25.18-.15.28.33Zm0,1.59v.25a.9.9,0,0,1-.48.09,1,1,0,0,1-.53-.22V39l.06.09a.93.93,0,0,0,.32.22.77.77,0,0,0,.38,0,.62.62,0,0,0,.25-.1Zm-1,1V40l.11.17Zm0-2.37v.33l-.08.15a.77.77,0,0,0,0,.38.88.88,0,0,0,.1.26v.36l-.12-.13a.93.93,0,0,1-.23-.69.91.91,0,0,1,.32-.65Zm0,2.13-.45-.65a1.31,1.31,0,0,0-.34-.38.54.54,0,0,0-.33-.1.55.55,0,0,0-.33.12.71.71,0,0,0-.24.31.91.91,0,0,0-.06.43.5.5,0,0,0-.24-.13.52.52,0,0,0-.24,0,.75.75,0,0,0-.23.1.76.76,0,0,0-.26.31,1.21,1.21,0,0,0-.06.34l-.18-.25-.18.13v-.1a.55.55,0,0,0-.22,0,.52.52,0,0,0-.19.18,1.1,1.1,0,0,0-.09.31l-.11-.23-.11.05v.27l.71,1.42.2-.1-.27-.56a2.54,2.54,0,0,1-.24-.57.61.61,0,0,1,0-.34.39.39,0,0,1,.15-.19.38.38,0,0,1,.13,0V40.2l1,1.49.19-.14-.43-.62a1.54,1.54,0,0,1-.23-.46.58.58,0,0,1,0-.33.48.48,0,0,1,.19-.25.43.43,0,0,1,.24-.09.81.81,0,0,1,.23.08,2,2,0,0,1,.28.34l.54.78.19-.14-.41-.59a1.61,1.61,0,0,1-.27-.5.58.58,0,0,1,0-.33.53.53,0,0,1,.19-.27.45.45,0,0,1,.24-.08.43.43,0,0,1,.22.06,1.4,1.4,0,0,1,.27.31l.56.82.08-.05V40Zm-3.86,2.28v-.88a.11.11,0,0,1,0,.05,1,1,0,0,1,0,.73A.26.26,0,0,1,31.77,42.26Zm0-1.84v.27l-.1-.22.1,0Zm0,1v.88a.83.83,0,0,1-.46.42.84.84,0,0,1-.38.09v-.23a.61.61,0,0,0,.29-.06.84.84,0,0,0,.29-.22.8.8,0,0,0,.13-.36.72.72,0,0,0-.06-.37.71.71,0,0,0-.4-.4.61.61,0,0,0-.25-.05v-.24a.84.84,0,0,1,.38.09A.92.92,0,0,1,31.77,41.38Zm-.84-.54v.24a.6.6,0,0,0-.29.05.66.66,0,0,0-.37.4.75.75,0,0,0,0,.57.78.78,0,0,0,.57.43h.08v.23a.88.88,0,0,1-.36-.08.93.93,0,0,1-.51-.5,1,1,0,0,1,0-.7.92.92,0,0,1,.52-.56.83.83,0,0,1,.38-.09Zm-2,2.65v-.36l.09.33-.09,0Zm0-1.72.2-.06.48,1.55.22-.08-.48-1.54.37-.11-.06-.19-.37.11-.06-.24a.53.53,0,0,1-.05-.18.11.11,0,0,1,0-.08.2.2,0,0,1,.1-.06.56.56,0,0,1,.22,0l-.06-.22a.74.74,0,0,0-.27,0,.52.52,0,0,0-.19.1.49.49,0,0,0-.08.17,1,1,0,0,0,.05.28l.09.27-.14.05Zm0-.2v.2h0l-.06-.19.09,0Zm0,1.57v.36l-.14,0-.22-.84a3,3,0,0,0-.13-.39.43.43,0,0,0-.54-.24.57.57,0,0,0-.33.23.66.66,0,0,0-.13.4,2.1,2.1,0,0,0,.09.48l.17.65-.23.06L27,42.11l.23-.05.09.32a.77.77,0,0,1,.23-.36.65.65,0,0,1,.33-.18.64.64,0,0,1,.38,0,.69.69,0,0,1,.29.22,1.54,1.54,0,0,1,.2.51l.15.57ZM24,44.33v-.22h0a.7.7,0,0,0,.36-.13.58.58,0,0,0,.26-.27.78.78,0,0,0,.06-.38.68.68,0,0,0-.24-.51.65.65,0,0,0-.47-.19v-.22a1,1,0,0,1,.33.06,1,1,0,0,1,.33.27l-.06-1h.23L25,44.21l-.23,0,0-.32a1,1,0,0,1-.32.29,1,1,0,0,1-.38.11Zm2.33-2.78.24,0,.37,2.43-.24,0-.37-2.43Zm-.73,1-.14-.05a1,1,0,0,0,.05-.22.53.53,0,0,0,0-.19l-.14,0-.06-.46.29,0,0,.28a1.6,1.6,0,0,1,0,.34A1.19,1.19,0,0,1,25.6,42.53ZM24,42.42v.22h-.05a.75.75,0,0,0-.36.13.75.75,0,0,0-.24.28,1,1,0,0,0-.08.37.78.78,0,0,0,.41.62.69.69,0,0,0,.32.08v.22a1,1,0,0,1-.65-.24.93.93,0,0,1-.31-.66.94.94,0,0,1,.88-1Zm-3,1.82V44l.15,0a.57.57,0,0,0,.24-.1.94.94,0,0,0,.22-.23l.19.13a1.43,1.43,0,0,1-.26.28,1.08,1.08,0,0,1-.31.14.74.74,0,0,1-.24,0Zm0-.93v-.2l.68.08a.92.92,0,0,0-.1-.32.66.66,0,0,0-.22-.2.62.62,0,0,0-.31-.1H21v-.22H21a.91.91,0,0,1,.7.43,1,1,0,0,1,.13.65Zm0-1v.22a.71.71,0,0,0-.42.13.79.79,0,0,0-.25.36l.68.08v.2l-.71-.09a.74.74,0,0,0,.14.55.7.7,0,0,0,.46.25H21v.22h-.13a.89.89,0,0,1-.65-.37.74.74,0,0,1-.13-.24V43a1.08,1.08,0,0,1,.23-.36.84.84,0,0,1,.68-.27Zm-.91,0,.05-.06-.05,0Zm0-.1v.1l-.1.1-.1-.05a.37.37,0,0,0-.24.06.58.58,0,0,0-.2.27,2.6,2.6,0,0,0-.15.61l-.1.61-.23,0v-.05l.29-1.75.24,0-.05.26a.87.87,0,0,1,.27-.19.43.43,0,0,1,.24,0,.34.34,0,0,1,.14.06Zm0,.69a1.61,1.61,0,0,0-.05.23,1.06,1.06,0,0,0,.05.45V43Zm-1.13-.83v0h0Zm0,0v0l-.22.84a1.47,1.47,0,0,1-.22.52.72.72,0,0,1-.33.22.8.8,0,0,1-.46,0,.78.78,0,0,1-.41-.22.73.73,0,0,1-.18-.36,1.47,1.47,0,0,1,.06-.59l.22-.84.23,0-.22.83a2,2,0,0,0-.08.42.53.53,0,0,0,.13.3.57.57,0,0,0,.29.18.63.63,0,0,0,.34,0,.49.49,0,0,0,.26-.19,1.77,1.77,0,0,0,.14-.42l.22-.83.22.06Zm0,1.78v.05h0v-.05Zm-2.88-.75V42.9a.41.41,0,0,0,.18,0,1.13,1.13,0,0,0,.28-.18l.15.17a1.08,1.08,0,0,1-.32.22.8.8,0,0,1-.29.06Zm0-.92V42l.63.23a.65.65,0,0,0,0-.32.8.8,0,0,0-.17-.26.76.76,0,0,0-.27-.18.88.88,0,0,0-.18,0v-.23a.94.94,0,0,1,.26.06.88.88,0,0,1,.57.59,1,1,0,0,1,0,.65Zm0-1v.23a.63.63,0,0,0-.3,0,.84.84,0,0,0-.33.28l.64.24v.22l-.73-.28a.71.71,0,0,0,0,.56.68.68,0,0,0,.38.37,1,1,0,0,0,.27,0h.08v.23h0a1.22,1.22,0,0,1-.36-.06.83.83,0,0,1-.55-.52h0v-.69h0a1,1,0,0,1,.42-.51.88.88,0,0,1,.53-.13Zm-1-.22v-.17l.06,0L15.1,41Zm0-.61v-.17a.18.18,0,0,1,.1-.09.16.16,0,0,1,.15,0,.19.19,0,0,1,.1.1.31.31,0,0,1,0,.15.21.21,0,0,1-.11.1.24.24,0,0,1-.14,0A.19.19,0,0,1,15.1,40.38Zm0-.17v.17h0a.14.14,0,0,1,0-.14Zm0,.61V41l-.55,1.27v-.6l.39-.91.15.06Zm0,1a1.07,1.07,0,0,0,0,.69v-.69Zm-.55-1.08,0,0,.09.08.2-.12a.38.38,0,0,0-.17-.15l-.17-.05Zm0-.22v.22a.61.61,0,0,0-.22,0,.62.62,0,0,0-.28.2,3.06,3.06,0,0,0-.32.54l-.27.56-.19-.1v-.08l.79-1.57.2.12-.11.23a1.2,1.2,0,0,1,.31-.1Zm0,1.12-.33.76.22.09.12-.25v-.6ZM13.28,41l.12.06a1,1,0,0,0,.15-.64.87.87,0,0,0-.27-.54v.42a.33.33,0,0,1,0,.13.56.56,0,0,1,0,.28V41Zm0-1.53v-.22l.33-.14.31.19Zm0-.22v.22h-.05L13,39.37l.24-.11Zm0,.64v.42a.41.41,0,0,0-.08-.15.65.65,0,0,0-.23-.23.69.69,0,0,0-.47-.09.73.73,0,0,0-.38.22l1.16.7V41L12,40.21a.79.79,0,0,0-.1.55.63.63,0,0,0,.31.43,1.11,1.11,0,0,0,.25.1,1.05,1.05,0,0,0,.27,0,1.27,1.27,0,0,0,.31-.11l.1.19a.79.79,0,0,1-.34.14,1,1,0,0,1-.34,0,1.38,1.38,0,0,1-.33-.14.9.9,0,0,1-.41-.47v-.64a.73.73,0,0,1,.1-.19.9.9,0,0,1,.5-.42.87.87,0,0,1,.79.08,1.24,1.24,0,0,1,.19.15Zm0,2V42h0l0-.06ZM11.7,39.69a.82.82,0,0,0,0-.43.5.5,0,0,0,0-.19Zm0-.63v.63a.88.88,0,0,1-.14.27,1,1,0,0,1-.64.38h-.14v-.23a1.11,1.11,0,0,0,.28-.06.76.76,0,0,0,.45-.59.73.73,0,0,0-.05-.37.65.65,0,0,0-.22-.31.67.67,0,0,0-.46-.14v-.2H11a.88.88,0,0,1,.37.17.87.87,0,0,1,.32.43Zm0,1.21a1.08,1.08,0,0,0,0,.5l0,.14v-.64Zm-.92-2Zm0,0h0l-.2.26.2,0v.2h-.09a.73.73,0,0,0-.48.29s0,0,0,0v-.36l.42-.53.18.14Zm0,1.89v.23a.87.87,0,0,1-.55-.19l-.05,0v-.31a.87.87,0,0,0,.15.15.68.68,0,0,0,.34.14ZM10.18,38v-.28l.14.13Zm0-.28V38l-.46.51a1.59,1.59,0,0,1-.45.36.71.71,0,0,1-.39,0,.93.93,0,0,1-.2-.06v-.28a.58.58,0,0,0,.25.11.47.47,0,0,0,.32-.06,1.25,1.25,0,0,0,.32-.31l.57-.62,0,0Zm0,.9-1.1,1.43.19.15.59-.78a1.08,1.08,0,0,0,.1.41.94.94,0,0,0,.22.28v-.31l-.08-.14a.74.74,0,0,1-.05-.37.76.76,0,0,1,.13-.32v-.36Zm-1.5-1v-.34l.47-.51.18.15-.59.62-.06.08Zm0-1.95v-.25h.06a.79.79,0,0,1,.27.18.7.7,0,0,1,.15.31,1.43,1.43,0,0,1,0,.45l-.26-.05a.78.78,0,0,0,0-.33.55.55,0,0,0-.09-.2A1,1,0,0,0,8.68,35.69Zm0-.25v.25h-.1a.24.24,0,0,0-.22.08.25.25,0,0,0-.1.13.43.43,0,0,0,0,.19,3.4,3.4,0,0,0,0,.41,1.71,1.71,0,0,1,0,.6.76.76,0,0,1-.19.34.68.68,0,0,1-.49.15.74.74,0,0,1-.48-.24,1,1,0,0,1-.14-.24v-.52l0-.14.24.08a.6.6,0,0,0,0,.65.53.53,0,0,0,.2.14.44.44,0,0,0,.22,0,.46.46,0,0,0,.19-.1A.34.34,0,0,0,8,37a2.09,2.09,0,0,0,0-.59,2.39,2.39,0,0,1,0-.51.64.64,0,0,1,.47-.48.47.47,0,0,1,.23,0Zm0,1.86-.13.13a1.44,1.44,0,0,0-.32.5.6.6,0,0,0,0,.4.81.81,0,0,0,.26.38l.2.15v-.28l-.05,0a.62.62,0,0,1-.18-.31.46.46,0,0,1,0-.32,1.08,1.08,0,0,1,.19-.27v-.34ZM6.92,34.86v-.54a1,1,0,0,1,0,.54Zm0-22.56v-.43l.43-.61L6.92,11v-.29l.76.52ZM6.54,35.08a.93.93,0,0,0,.17-.28.62.62,0,0,0,0-.31.66.66,0,0,0-.11-.29.63.63,0,0,0-.36-.27v-.24a.83.83,0,0,1,.54.38.78.78,0,0,1,.13.25v.56a1,1,0,0,1-.39.51L6.26,35v-.37l.28.42Zm.38-24.41V11l-.2-.14-.46.66v-.43l.26-.37-.26-.17v-.31l.66.46Zm0,1.2v.43l0,0-.2-.14.23-.33Zm0,24.7v.52l0-.14A1,1,0,0,1,6.92,36.57Zm-.66-2.64h0a.66.66,0,0,0-.38,0v-.26h.28l.14,0v.24Zm-.42.1.42.63V35l-.42-.64V34Zm.42-23.82v.31l-.42-.29V9.92l.42.29Zm0,.84v.43l-.2.28-.19-.14.4-.57ZM5.84,35.56v-.23h.29v.22a1.18,1.18,0,0,1-.31,0Zm0-2.47v-.52a.58.58,0,0,1,.05.32.55.55,0,0,1-.05.2Zm0-20.21V12a.83.83,0,0,1,.09.43A.91.91,0,0,1,5.84,12.87Zm0,21.06H5.79l.05.09v.36L5.61,34a.77.77,0,0,0-.33.46.69.69,0,0,0,.1.52.67.67,0,0,0,.19.19,1,1,0,0,0,.23.11h0v.23H5.76a1.09,1.09,0,0,1-.31-.14,1,1,0,0,1-.24-.27.84.84,0,0,1-.14-.74,1,1,0,0,1,.41-.57,1,1,0,0,1,.36-.15v.26Zm0-24v.31l-.12-.09-.66,1-.19-.14L5.66,9.8l.18.11Zm0,2.12v.84a.4.4,0,0,1-.05.1,1.52,1.52,0,0,1-.22.28,1.1,1.1,0,0,1-.27.18A1.09,1.09,0,0,1,5,13.5v-.23a.72.72,0,0,0,.6-.41.75.75,0,0,0,.09-.59.68.68,0,0,0-.34-.45.77.77,0,0,0-.37-.1.68.68,0,0,0-.38.11.59.59,0,0,0-.14.1v-.28a.85.85,0,0,1,.27-.13,1,1,0,0,1,.73.08A.88.88,0,0,1,5.8,12l0,.06Zm0,20.53s0,0,0,0a.71.71,0,0,0-.25-.29.85.85,0,0,0-.38-.14l.28-.15-.1-.22-.9.47v.27a3.09,3.09,0,0,1,.45-.19.57.57,0,0,1,.41,0,.57.57,0,0,1,.31.27.46.46,0,0,1,.05.31.44.44,0,0,1-.17.27,1.65,1.65,0,0,1-.36.22l-.69.36v.22l0,0,.83-.43a1.38,1.38,0,0,0,.45-.32.87.87,0,0,0,.09-.14v-.52Zm-1.39-.84v-.27l.61-.29.1.22-.71.34Zm0-.73V29.72l.12.19a.87.87,0,0,1-.08.82l.31-.13.09.22L4.45,31Zm0-14.87v-.24l.61.23L5,16.33l-.52-.2Zm0-.92A.93.93,0,0,0,4.92,14a.92.92,0,0,0-.47-.48v.28a.62.62,0,0,1,.27.33.66.66,0,0,1,0,.54.6.6,0,0,1-.27.32v.27ZM5.79,30.95a.21.21,0,0,1,0,.15.22.22,0,0,1-.1.11.21.21,0,0,1-.15,0,.14.14,0,0,1-.1-.1.17.17,0,0,1,0-.14.22.22,0,0,1,.1-.11.18.18,0,0,1,.14,0A.21.21,0,0,1,5.79,30.95ZM4.45,11.66v.28a1.07,1.07,0,0,0-.14.19.81.81,0,0,0,0,.73l-.2.1A.93.93,0,0,1,4,12.5,1.25,1.25,0,0,1,4.13,12a1.09,1.09,0,0,1,.32-.36Zm0,1.81v.28l-.13-.08A.72.72,0,0,0,4,13.63a.78.78,0,0,0-.27.08v-.25h0a.92.92,0,0,1,.71,0Zm0,1.47v.27l-.08,0a.91.91,0,0,1-.69,0v-.27s.05,0,.08,0a.71.71,0,0,0,.56,0l.13-.06Zm0,.94v.24l-.76-.28v-.26l.76.29Zm0,13.84V31l-.76.32V31A.69.69,0,0,0,4,31a.73.73,0,0,0,.41-.4.68.68,0,0,0,0-.55.71.71,0,0,0-.23-.31.83.83,0,0,0-.36-.14H3.68v-.24a.89.89,0,0,1,.36.08.83.83,0,0,1,.41.31Zm0,1.73v.27l-.76.37v-.27l.76-.37Zm0,.74v.27h0l-.59.31-.11-.22.71-.37Zm0,1.53v.22l-.09-.17.09-.05ZM3.68,29v-.17a.81.81,0,0,0,.08-.62A.84.84,0,0,0,3.68,28v-.34a.27.27,0,0,1,.05.06,1,1,0,0,1,.24.47,1,1,0,0,1,0,.66.78.78,0,0,1-.18.24L3.68,29Zm0-7.39v-.14l.14.1v0Zm0-1.89v-.27l.37.09v0l-.37.14Zm0-2V17.4l.08-.17a.68.68,0,0,0,0-.5.75.75,0,0,1-.05-.1v-.34a1.69,1.69,0,0,1,.19.22A.87.87,0,0,1,4,17.3.81.81,0,0,1,3.68,17.73Zm0-4.28v.25l-.08.05a.64.64,0,0,0-.23.29.7.7,0,0,0-.06.36.69.69,0,0,0,.37.54v.27h0a1,1,0,0,1-.51-.51,1,1,0,0,1,.52-1.25Zm0,2.14v.26l-1.07-.39.08-.23,1,.37Zm0,.7v.34a1.39,1.39,0,0,0-.24-.22L3,17.7a.64.64,0,0,0,.32,0,.57.57,0,0,0,.25-.17l.09-.1v.33a.91.91,0,0,1-.28.17,1.08,1.08,0,0,1-.66,0l.52-1.56a.71.71,0,0,0-.56,0,.53.53,0,0,0-.14.09v-.28l.09,0a1,1,0,0,1,.7,0,1.06,1.06,0,0,1,.33.18Zm0,3.15v.27l-1.12.41v-.24l.79-.29-.79-.2v-.23l1.12.29Zm0,2v.14l-1.12,0v-.24h.57L2.56,21v-.27l1.12.71Zm0,6.17V28a.81.81,0,0,0-.26-.26.67.67,0,0,0-.56-.09.69.69,0,0,0-.31.15v-.29a1.3,1.3,0,0,1,.24-.09,1,1,0,0,1,.5,0,.88.88,0,0,1,.38.22Zm0,1.2V29l-.08-.08.08-.09Zm0,.52v.24a.68.68,0,0,0-.28.05.88.88,0,0,0-.31.23,1,1,0,0,0-.15.36.71.71,0,0,0,.28.66.68.68,0,0,0,.34.15h.12v.28l-.49.21-.09-.22.29-.11A1.1,1.1,0,0,1,3,31a.82.82,0,0,1-.23-.34.87.87,0,0,1,0-.71.93.93,0,0,1,.52-.51,1,1,0,0,1,.37-.08Zm0,2.49v.27l-.17.08L3.41,32l.27-.13ZM2.56,29.24V29l.23.15-.08.2-.15-.08Zm0-2.06v-.24h.09a.71.71,0,0,0,.48-.27.67.67,0,0,0,.15-.52A.66.66,0,0,0,3,25.66a.65.65,0,0,0-.45-.14v-.24a.91.91,0,0,1,.56.17.95.95,0,0,1,.18,1.39,1,1,0,0,1-.61.33Zm0-2.65v-.27l.66-.06,0,.24-.27,0a.75.75,0,0,1,.27.2.52.52,0,0,1,.1.23.48.48,0,0,1-.05.22L3.1,25a.22.22,0,0,0,0-.13A.29.29,0,0,0,3,24.66a.62.62,0,0,0-.31-.14Zm0-.57v-.27a.72.72,0,0,0,.23-.15A.65.65,0,0,0,3,23a.61.61,0,0,0-.09-.37.89.89,0,0,0-.27-.27l-.09,0v-.26a1,1,0,0,1,.41.24.94.94,0,0,1,.27.66.72.72,0,0,1-.1.41.84.84,0,0,1-.28.32h.33v.23Zm0-7.77v.28a.68.68,0,0,0-.2.29,1,1,0,0,0,0,.28.81.81,0,0,0,.05.25,1.05,1.05,0,0,0,.18.27l-.15.15a1.18,1.18,0,0,1-.23-.31,1.59,1.59,0,0,1-.08-.33.92.92,0,0,1,.06-.36.85.85,0,0,1,.41-.54Zm0,3v.23l-.94-.23,0-.24.92.24Zm0,.73v.24l-.62.23.62.4V21l-1.07-.69v-.06l1.07-.38Zm0,1.52v.24l-1.22,0,0-.24,1.2,0Zm0,.7v.26a.68.68,0,0,0-.28-.05.79.79,0,0,0-.37.09.68.68,0,0,0-.27.27.69.69,0,0,0-.1.36.7.7,0,0,0,.09.36.68.68,0,0,0,.27.27.7.7,0,0,0,.37.1.75.75,0,0,0,.29-.05v.27H1.36v-.23h.32a1,1,0,0,1-.27-.33.81.81,0,0,1-.09-.4.91.91,0,0,1,.28-.66A1,1,0,0,1,2.29,22a1,1,0,0,1,.27,0Zm0,2.17v.27a2.58,2.58,0,0,0-.51,0l-.61,0,0-.23,1.15-.11Zm0,1v.24h-.1a.68.68,0,0,0-.35.14.57.57,0,0,0-.23.29.74.74,0,0,0-.05.37.72.72,0,0,0,.14.33.74.74,0,0,0,.29.23.8.8,0,0,0,.29.05v.24A1,1,0,0,1,2,27a.87.87,0,0,1-.37-.64.88.88,0,0,1,.19-.71,1,1,0,0,1,.62-.36Zm0,2.21v.29l0,0a.88.88,0,0,0-.19.33.76.76,0,0,0,0,.41.81.81,0,0,0,.23.42v.28A1.06,1.06,0,0,1,2.34,29a1.14,1.14,0,0,1-.23-.46,1,1,0,0,1,.1-.76A.89.89,0,0,1,2.56,27.48Z" style="fill:#ffe500"/><path d="M83,1.7V4.33H71.67v9.4H83v2.65H71.67v9.38H83v2.65H69V1.7Z" style="fill:#7b3895"/><path d="M110.71,1.7V28.41h-2.65V5.63l-7.9,10.32-1.37,1.82L97.4,16,89.51,5.63V28.41H86.86V1.7h3l8.95,11.69L107.72,1.7Z" style="fill:#7b3895"/><path d="M121.9,14.24a11.43,11.43,0,0,1-4.56-2.65,5.73,5.73,0,0,1-1.72-4.23,5.77,5.77,0,0,1,1.76-4.21,6,6,0,0,1,8.51,0,6.65,6.65,0,0,1,1.54,2.67L125,6.76A5,5,0,0,0,124,5a3.37,3.37,0,0,0-4.75,0,3.23,3.23,0,0,0-1,2.39,3.25,3.25,0,0,0,1,2.39A9.63,9.63,0,0,0,122,11.57a13.11,13.11,0,0,1,5.38,3.21,7.87,7.87,0,0,1,2.37,5.75,7.89,7.89,0,0,1-2.39,5.78,8.11,8.11,0,0,1-11.52,0,8.56,8.56,0,0,1-2.37-4.94l2.54-.9a6.45,6.45,0,0,0,1.67,4,5.55,5.55,0,0,0,9.47-3.93,5.37,5.37,0,0,0-1.62-3.91A11,11,0,0,0,121.9,14.24Z" style="fill:#7b3895"/><path d="M135.75,1.7V28.41H133.1V1.7Z" style="fill:#7b3895"/><path d="M162.39,24.9a13,13,0,0,1-9.29,3.82,13.17,13.17,0,0,1-9.67-4,13.17,13.17,0,0,1-4-9.67,13.19,13.19,0,0,1,4-9.65,13.14,13.14,0,0,1,9.67-4,14,14,0,0,1,9.68,4l-2,1.77a11.39,11.39,0,0,0-7.69-3.1,10.61,10.61,0,0,0-7.77,3.21A10.56,10.56,0,0,0,142.11,15a10.61,10.61,0,0,0,3.22,7.79,10.59,10.59,0,0,0,7.77,3.22,10.25,10.25,0,0,0,6.66-2.22v-8.1h2.63Z" style="fill:#7b3895"/><path d="M71.92,29.36V30H69.42v2.21h2.51v.62H69.42V35h2.51v.62h-3.1V29.36Z" style="fill:#4b4a4b"/><path d="M75.89,34.45l.59.23a4,4,0,0,1-.33.42,2,2,0,0,1-2.94,0,2.3,2.3,0,0,1,0-3.12,2,2,0,0,1,2.93,0,3.65,3.65,0,0,1,.33.42l-.59.23-.17-.2a1.41,1.41,0,0,0-2.07,0,1.64,1.64,0,0,0,0,2.21,1.41,1.41,0,0,0,2.08,0Z" style="fill:#4b4a4b"/><path d="M79.07,31.35a1.93,1.93,0,0,1,1.47.64,2.31,2.31,0,0,1,0,3.12,2,2,0,0,1-2.93,0,2.3,2.3,0,0,1,0-3.12A1.94,1.94,0,0,1,79.07,31.35Zm-1,1.1a1.63,1.63,0,0,0,0,2.21,1.42,1.42,0,0,0,2.08,0,1.63,1.63,0,0,0,0-2.21,1.4,1.4,0,0,0-2.08,0Z" style="fill:#4b4a4b"/><path d="M82.48,29.36v6.29H81.9V29.36Z" style="fill:#4b4a4b"/><path d="M83.75,33.5a1.64,1.64,0,0,0,.44,1.15,1.41,1.41,0,0,0,2.08,0l.2-.24.58.22a2.27,2.27,0,0,1-.36.48,2,2,0,0,1-2.93,0,2.3,2.3,0,0,1,0-3.12,2,2,0,0,1,2.94,0,2.12,2.12,0,0,1,.54,1.51Zm.13-.63h2.68a1.24,1.24,0,0,0-.29-.43,1.41,1.41,0,0,0-2.08,0A1.42,1.42,0,0,0,83.88,32.87Z" style="fill:#4b4a4b"/><path d="M95.18,29.36v6.29H94.6V30.28l-1.75,2.43-.3.43-.31-.42-1.75-2.43v5.36H89.9V29.36h.66l2,2.75,2-2.75Z" style="fill:#4b4a4b"/><path d="M100,35.65h-.59v-.46a2,2,0,0,1-1.44.57,1.94,1.94,0,0,1-1.47-.65,2.3,2.3,0,0,1,0-3.12A1.94,1.94,0,0,1,98,31.35a2,2,0,0,1,1.44.57v-.23H100Zm-.59-1.78v-.64a1.53,1.53,0,0,0-.4-.79,1.41,1.41,0,0,0-2.08,0,1.63,1.63,0,0,0,0,2.21,1.41,1.41,0,0,0,2.08,0A1.51,1.51,0,0,0,99.39,33.87Z" style="fill:#4b4a4b"/><path d="M102.33,32.22a1.17,1.17,0,0,0-.64.34,1.51,1.51,0,0,0-.43,1v2h-.59v-4h.59v.42a1.79,1.79,0,0,1,.75-.48Z" style="fill:#4b4a4b"/><path d="M104.71,31.35a1.93,1.93,0,0,1,1.47.64,2.31,2.31,0,0,1,0,3.12,2,2,0,0,1-2.93,0,2.3,2.3,0,0,1,0-3.12A1.94,1.94,0,0,1,104.71,31.35Zm-1,1.1a1.63,1.63,0,0,0,0,2.21,1.42,1.42,0,0,0,2.08,0,1.63,1.63,0,0,0,0-2.21,1.4,1.4,0,0,0-2.08,0Z" style="fill:#4b4a4b"/><path d="M110.57,34.45l.59.23a4,4,0,0,1-.33.42,2,2,0,0,1-2.94,0,2.3,2.3,0,0,1,0-3.12,2,2,0,0,1,2.93,0,3.65,3.65,0,0,1,.33.42l-.59.23-.17-.2a1.41,1.41,0,0,0-2.07,0,1.64,1.64,0,0,0,0,2.21,1.41,1.41,0,0,0,2.08,0Z" style="fill:#4b4a4b"/><path d="M115.79,35.65h-.59v-.46a2,2,0,0,1-1.44.57,1.94,1.94,0,0,1-1.47-.65,2.3,2.3,0,0,1,0-3.12,1.94,1.94,0,0,1,1.47-.64,2,2,0,0,1,1.44.57v-.23h.59Zm-.59-1.78v-.64a1.53,1.53,0,0,0-.4-.79,1.41,1.41,0,0,0-2.08,0,1.63,1.63,0,0,0,0,2.21,1.41,1.41,0,0,0,2.08,0A1.51,1.51,0,0,0,115.2,33.87Z" style="fill:#4b4a4b"/><path d="M117.26,30.51a.47.47,0,0,1,.13.33.48.48,0,0,1-.13.34.42.42,0,0,1-.32.14.43.43,0,0,1-.32-.14.48.48,0,0,1-.13-.34.47.47,0,0,1,.13-.33.43.43,0,0,1,.32-.14A.42.42,0,0,1,117.26,30.51Zm0,1.17v4h-.58v-4Z" style="fill:#4b4a4b"/><path d="M118.72,32.67v3h-.59v-4h.59v0a1.18,1.18,0,0,1,.88-.26,1.44,1.44,0,0,1,1.1.45,1.61,1.61,0,0,1,.43,1.13v2.61h-.58V33.07a1,1,0,0,0-.28-.7.91.91,0,0,0-1.33,0A1,1,0,0,0,118.72,32.67Z" style="fill:#4b4a4b"/><path d="M122.35,33.5a1.64,1.64,0,0,0,.44,1.15,1.41,1.41,0,0,0,2.08,0l.2-.24.58.22a2.27,2.27,0,0,1-.36.48,2,2,0,0,1-2.93,0,2.3,2.3,0,0,1,0-3.12,2,2,0,0,1,2.94,0,2.12,2.12,0,0,1,.54,1.51Zm.13-.63h2.68a1.24,1.24,0,0,0-.29-.43,1.41,1.41,0,0,0-2.08,0A1.42,1.42,0,0,0,122.48,32.87Z" style="fill:#4b4a4b"/><path d="M130.19,32.31a2.51,2.51,0,0,1-1-.62,1.47,1.47,0,0,1,0-2,1.28,1.28,0,0,1,1.88,0,1.59,1.59,0,0,1,.34.63l-.53.22a1.19,1.19,0,0,0-.23-.42.72.72,0,0,0-1.05,0,.83.83,0,0,0,0,1.12,2.12,2.12,0,0,0,.62.43,2.88,2.88,0,0,1,1.19.76,2,2,0,0,1,0,2.71,1.72,1.72,0,0,1-2.55,0,2.07,2.07,0,0,1-.52-1.16l.56-.21a1.56,1.56,0,0,0,.37.94,1.18,1.18,0,0,0,1.74,0,1.36,1.36,0,0,0,0-1.84A2.42,2.42,0,0,0,130.19,32.31Z" style="fill:#4b4a4b"/><path d="M134.1,35.7a1.48,1.48,0,0,1-1.13-.45,1.63,1.63,0,0,1-.44-1.13V31.67h.59v2.41a1,1,0,0,0,.28.7.91.91,0,0,0,.7.3.89.89,0,0,0,.66-.29,1,1,0,0,0,.28-.7V31.67h.59v2.44a1.62,1.62,0,0,1-.44,1.13A1.42,1.42,0,0,1,134.1,35.7Z" style="fill:#4b4a4b"/><path d="M136.37,31.68H137v.23a2,2,0,0,1,1.44-.55,2,2,0,0,1,1.47.64,2.3,2.3,0,0,1,0,3.11,1.94,1.94,0,0,1-1.47.65,1.61,1.61,0,0,1-1.22-.39,1.72,1.72,0,0,0-.25-.25h0l0,.07v1.86h-.59Zm.59,1.54v.68a1.43,1.43,0,0,0,.4.76,1.41,1.41,0,0,0,2.08,0,1.63,1.63,0,0,0,0-2.21,1.41,1.41,0,0,0-2.08,0A1.47,1.47,0,0,0,137,33.21Z" style="fill:#4b4a4b"/><path d="M141.53,33.5a1.64,1.64,0,0,0,.44,1.15,1.41,1.41,0,0,0,2.08,0l.2-.24.58.22a2.27,2.27,0,0,1-.36.48,2,2,0,0,1-2.93,0,2.3,2.3,0,0,1,0-3.12,2,2,0,0,1,2.94,0A2.12,2.12,0,0,1,145,33.5Zm.13-.63h2.68a1.24,1.24,0,0,0-.29-.43,1.41,1.41,0,0,0-2.08,0A1.42,1.42,0,0,0,141.66,32.87Zm2.55-2.77-1.22,1h-.63l.81-1Z" style="fill:#4b4a4b"/><path d="M147.14,32.22a1.17,1.17,0,0,0-.64.34,1.51,1.51,0,0,0-.43,1v2h-.59v-4h.59v.42a1.79,1.79,0,0,1,.75-.48Z" style="fill:#4b4a4b"/><path d="M148.24,30.51a.47.47,0,0,1,.13.33.48.48,0,0,1-.13.34.42.42,0,0,1-.32.14.43.43,0,0,1-.32-.14.48.48,0,0,1-.13-.34.47.47,0,0,1,.13-.33.43.43,0,0,1,.32-.14A.42.42,0,0,1,148.24,30.51Zm0,1.17v4h-.58v-4Z" style="fill:#4b4a4b"/><path d="M149.52,33.5a1.64,1.64,0,0,0,.44,1.15,1.41,1.41,0,0,0,2.08,0l.2-.24.58.22a2.27,2.27,0,0,1-.36.48,2,2,0,0,1-2.93,0,2.3,2.3,0,0,1,0-3.12,2,2,0,0,1,2.94,0A2.12,2.12,0,0,1,153,33.5Zm.13-.63h2.68a1.24,1.24,0,0,0-.29-.43,1.41,1.41,0,0,0-2.08,0A1.42,1.42,0,0,0,149.65,32.87Z" style="fill:#4b4a4b"/><path d="M155.08,35.7a1.48,1.48,0,0,1-1.13-.45,1.63,1.63,0,0,1-.44-1.13V31.67h.59v2.41a1,1,0,0,0,.28.7.91.91,0,0,0,.7.3.89.89,0,0,0,.66-.29,1,1,0,0,0,.28-.7V31.67h.59v2.44a1.62,1.62,0,0,1-.44,1.13A1.42,1.42,0,0,1,155.08,35.7Z" style="fill:#4b4a4b"/><path d="M158.95,32.22a1.17,1.17,0,0,0-.64.34,1.51,1.51,0,0,0-.43,1v2h-.59v-4h.59v.42a1.79,1.79,0,0,1,.75-.48Z" style="fill:#4b4a4b"/><path d="M159.76,33.5a1.64,1.64,0,0,0,.44,1.15,1.41,1.41,0,0,0,2.08,0l.2-.24.58.22a2.27,2.27,0,0,1-.36.48,2,2,0,0,1-2.93,0,2.3,2.3,0,0,1,0-3.12,2,2,0,0,1,2.94,0,2.12,2.12,0,0,1,.54,1.51Zm.13-.63h2.68a1.24,1.24,0,0,0-.29-.43,1.41,1.41,0,0,0-2.08,0A1.42,1.42,0,0,0,159.89,32.87Z" style="fill:#4b4a4b"/><path d="M72.77,43.65h-.59v-.46a2,2,0,0,1-1.44.57,1.94,1.94,0,0,1-1.47-.65,2.3,2.3,0,0,1,0-3.12,1.94,1.94,0,0,1,1.47-.64,2,2,0,0,1,1.44.57V37.36h.59Zm-.59-1.78v-.64a1.53,1.53,0,0,0-.4-.79,1.41,1.41,0,0,0-2.08,0,1.63,1.63,0,0,0,0,2.21,1.41,1.41,0,0,0,2.08,0A1.51,1.51,0,0,0,72.19,41.87Z" style="fill:#4b4a4b"/><path d="M73.87,38.23l-.05-.09a.47.47,0,0,1-.13-.34.46.46,0,0,1,.13-.34.44.44,0,0,1,.63,0,.46.46,0,0,1,.13.34.62.62,0,0,1,0,.2l-.39.83h-.5Z" style="fill:#4b4a4b"/><path d="M75.88,37.36v6.29h-.59V37.36Z" style="fill:#4b4a4b"/><path d="M77.39,40.67v3H76.8v-4h.59v0a1.18,1.18,0,0,1,.88-.26,1.44,1.44,0,0,1,1.1.45A1.61,1.61,0,0,1,79.79,41v2.61h-.58V41.07a1,1,0,0,0-.28-.7.91.91,0,0,0-1.33,0A1,1,0,0,0,77.39,40.67Z" style="fill:#4b4a4b"/><path d="M81.23,40.3v3.34h-.59V40.3H80.3v-.62h.35v-.86A1.29,1.29,0,0,1,81,38a1.06,1.06,0,0,1,.76-.32,1.84,1.84,0,0,1,.59.13l-.19.58a1.05,1.05,0,0,0-.37-.12.55.55,0,0,0-.38.17.61.61,0,0,0-.17.4v.83h.71v.62Z" style="fill:#4b4a4b"/><path d="M84.41,39.35a1.93,1.93,0,0,1,1.47.64,2.31,2.31,0,0,1,0,3.12,2,2,0,0,1-2.93,0,2.3,2.3,0,0,1,0-3.12A1.94,1.94,0,0,1,84.41,39.35Zm-1,1.1a1.63,1.63,0,0,0,0,2.21,1.42,1.42,0,0,0,2.08,0,1.63,1.63,0,0,0,0-2.21,1.4,1.4,0,0,0-2.08,0Z" style="fill:#4b4a4b"/><path d="M88.76,40.22a1.17,1.17,0,0,0-.64.34,1.51,1.51,0,0,0-.43,1v2H87.1v-4h.59v.42a1.79,1.79,0,0,1,.75-.48Z" style="fill:#4b4a4b"/><path d="M89.17,39.68h.59c.07-.14.26-.22.58-.22a1.2,1.2,0,0,1,.87.39,1.2,1.2,0,0,1,.87-.39,1.1,1.1,0,0,1,.82.36,1.26,1.26,0,0,1,.34.84v3h-.59V40.52a.51.51,0,0,0-.16-.26.56.56,0,0,0-.41-.18.55.55,0,0,0-.41.18.62.62,0,0,0-.17.45v2.93h-.58V40.52a.59.59,0,0,0-.17-.26.56.56,0,0,0-.82,0,.59.59,0,0,0-.17.38v3h-.59Z" style="fill:#4b4a4b"/><path d="M98.06,43.65h-.59v-.46a2,2,0,0,1-1.44.57,1.94,1.94,0,0,1-1.47-.65,2.3,2.3,0,0,1,0-3.12A1.94,1.94,0,0,1,96,39.35a2,2,0,0,1,1.44.57v-.23h.59Zm-.59-1.78v-.64a1.53,1.53,0,0,0-.4-.79,1.41,1.41,0,0,0-2.08,0,1.63,1.63,0,0,0,0,2.21,1.41,1.41,0,0,0,2.08,0A1.51,1.51,0,0,0,97.47,41.87Z" style="fill:#4b4a4b"/><path d="M99.27,39.68V38.11h.58v1.57h.71v.62h-.71v3.34h-.58V40.3h-.71v-.62Z" style="fill:#4b4a4b"/><path d="M101.79,38.51a.47.47,0,0,1,.13.33.48.48,0,0,1-.13.34.42.42,0,0,1-.32.14.43.43,0,0,1-.32-.14.48.48,0,0,1-.13-.34.47.47,0,0,1,.13-.33.43.43,0,0,1,.32-.14A.42.42,0,0,1,101.79,38.51Zm0,1.17v4h-.58v-4Z" style="fill:#4b4a4b"/><path d="M106.61,45.05H106V43.18a2,2,0,0,1-1.44.57,1.94,1.94,0,0,1-1.47-.65,2.3,2.3,0,0,1,0-3.11,2,2,0,0,1,1.47-.64,2,2,0,0,1,1.44.56v-.23h.59ZM106,41.87v-.64a1.53,1.53,0,0,0-.4-.79,1.41,1.41,0,0,0-2.08,0,1.64,1.64,0,0,0,0,2.21,1.41,1.41,0,0,0,2.08,0A1.51,1.51,0,0,0,106,41.87Z" style="fill:#4b4a4b"/><path d="M108.91,43.7a1.48,1.48,0,0,1-1.13-.45,1.63,1.63,0,0,1-.44-1.13V39.67h.59v2.41a1,1,0,0,0,.28.7.91.91,0,0,0,.7.3.89.89,0,0,0,.66-.29,1,1,0,0,0,.28-.7V39.67h.59v2.44a1.62,1.62,0,0,1-.44,1.13A1.42,1.42,0,0,1,108.91,43.7Z" style="fill:#4b4a4b"/><path d="M111.6,41.5a1.64,1.64,0,0,0,.44,1.15,1.41,1.41,0,0,0,2.08,0l.2-.24.58.22a2.27,2.27,0,0,1-.36.48,2,2,0,0,1-2.93,0,2.3,2.3,0,0,1,0-3.12,2,2,0,0,1,2.94,0,2.12,2.12,0,0,1,.54,1.51Zm.13-.63h2.68a1.24,1.24,0,0,0-.29-.43,1.41,1.41,0,0,0-2.08,0A1.42,1.42,0,0,0,111.73,40.87Z" style="fill:#4b4a4b"/><path d="M118.17,41.5a1.64,1.64,0,0,0,.44,1.15,1.41,1.41,0,0,0,2.08,0l.2-.24.58.22a2.27,2.27,0,0,1-.36.48,2,2,0,0,1-2.93,0,2.3,2.3,0,0,1,0-3.12,2,2,0,0,1,2.94,0,2.12,2.12,0,0,1,.54,1.51Zm.13-.63H121a1.24,1.24,0,0,0-.29-.43,1.41,1.41,0,0,0-2.08,0A1.42,1.42,0,0,0,118.3,40.87Z" style="fill:#4b4a4b"/><path d="M122.65,39.68V38.11h.58v1.57h.71v.62h-.71v3.34h-.58V40.3h-.71v-.62Z" style="fill:#4b4a4b"/><path d="M130.6,43.65H130v-.46a2,2,0,0,1-1.44.57,1.94,1.94,0,0,1-1.47-.65,2.3,2.3,0,0,1,0-3.12,1.94,1.94,0,0,1,1.47-.64,2,2,0,0,1,1.44.57V37.36h.59ZM130,41.87v-.64a1.53,1.53,0,0,0-.4-.79,1.41,1.41,0,0,0-2.08,0,1.63,1.63,0,0,0,0,2.21,1.41,1.41,0,0,0,2.08,0A1.51,1.51,0,0,0,130,41.87Z" style="fill:#4b4a4b"/><path d="M131.78,41.5a1.64,1.64,0,0,0,.44,1.15,1.41,1.41,0,0,0,2.08,0l.2-.24.58.22a2.27,2.27,0,0,1-.36.48,2,2,0,0,1-2.93,0,2.3,2.3,0,0,1,0-3.12,2,2,0,0,1,2.94,0,2.12,2.12,0,0,1,.54,1.51Zm.13-.63h2.68a1.24,1.24,0,0,0-.29-.43,1.41,1.41,0,0,0-2.08,0A1.42,1.42,0,0,0,131.91,40.87Z" style="fill:#4b4a4b"/><path d="M142.93,42.82a2.8,2.8,0,0,1-2.06.9,2.84,2.84,0,0,1-2.14-.94,3.36,3.36,0,0,1,0-4.55,2.83,2.83,0,0,1,2.14-.94,3,3,0,0,1,2.15.95l-.44.42a2.45,2.45,0,0,0-1.7-.73,2.28,2.28,0,0,0-1.72.76,2.7,2.7,0,0,0,0,3.66,2.28,2.28,0,0,0,1.72.76,2.19,2.19,0,0,0,1.47-.52V40.66h.58Z" style="fill:#4b4a4b"/><path d="M144.14,41.5a1.64,1.64,0,0,0,.44,1.15,1.41,1.41,0,0,0,2.08,0l.2-.24.58.22a2.27,2.27,0,0,1-.36.48,2,2,0,0,1-2.93,0,2.3,2.3,0,0,1,0-3.12,2,2,0,0,1,2.94,0,2.12,2.12,0,0,1,.54,1.51Zm.13-.63H147a1.24,1.24,0,0,0-.29-.43,1.41,1.41,0,0,0-2.08,0A1.42,1.42,0,0,0,144.27,40.87Z" style="fill:#4b4a4b"/><path d="M149.15,41.65a2.64,2.64,0,0,1-.59-.42,1.07,1.07,0,0,1,0-1.45.9.9,0,0,1,.68-.3.88.88,0,0,1,.67.28.9.9,0,0,1,.26.63v.12l-.52.22a1.11,1.11,0,0,0-.15-.53.33.33,0,0,0-.26-.11.36.36,0,0,0-.27.12.42.42,0,0,0,0,.57,2.05,2.05,0,0,0,.35.27,3,3,0,0,1,.67.49,1.23,1.23,0,0,1,.34.87,1.24,1.24,0,0,1-.34.88,1.11,1.11,0,0,1-1.64,0,1.28,1.28,0,0,1-.34-.91l.58-.16a.92.92,0,0,0,.17.63.54.54,0,0,0,.41.18.55.55,0,0,0,.41-.18.62.62,0,0,0,.17-.44.6.6,0,0,0-.18-.43A3.07,3.07,0,0,0,149.15,41.65Z" style="fill:#4b4a4b"/><path d="M151.48,39.68V38.11h.58v1.57h.71v.62h-.71v3.34h-.58V40.3h-.71v-.62Z" style="fill:#4b4a4b"/><path d="M154,38.51a.47.47,0,0,1,.13.33.48.48,0,0,1-.13.34.42.42,0,0,1-.32.14.43.43,0,0,1-.32-.14.48.48,0,0,1-.13-.34.47.47,0,0,1,.13-.33.43.43,0,0,1,.32-.14A.42.42,0,0,1,154,38.51Zm0,1.17v4h-.58v-4Z" style="fill:#4b4a4b"/><path d="M156.84,39.35a1.93,1.93,0,0,1,1.47.64,2.31,2.31,0,0,1,0,3.12,2,2,0,0,1-2.93,0,2.3,2.3,0,0,1,0-3.12A1.94,1.94,0,0,1,156.84,39.35Zm-1,1.1a1.63,1.63,0,0,0,0,2.21,1.42,1.42,0,0,0,2.08,0,1.63,1.63,0,0,0,0-2.21,1.4,1.4,0,0,0-2.08,0Z" style="fill:#4b4a4b"/><path d="M160.21,40.67v3h-.59v-4h.59v0a1.18,1.18,0,0,1,.88-.26,1.44,1.44,0,0,1,1.1.45,1.61,1.61,0,0,1,.43,1.13v2.61H162V41.07a1,1,0,0,0-.28-.7.91.91,0,0,0-1.33,0A1,1,0,0,0,160.21,40.67Z" style="fill:#4b4a4b"/><line x1="57.29" x2="57.29" y2="46" style="fill:none;stroke:#fc0;stroke-miterlimit:10;stroke-width:2px"/></svg>